<svg xmlns="http://www.w3.org/2000/svg" viewBox="0 0 497.73 563.67"><defs><style>.cls-1,.cls-2{fill:none;stroke-linecap:round;stroke-linejoin:round;}.cls-1{stroke:#fff;stroke-width:23px;}.cls-2{stroke:#ff5454;stroke-width:30px;}</style></defs><g id="Ebene_2" data-name="Ebene 2"><g id="Ebene_1-2" data-name="Ebene 1"><g id="Magazin"><polyline class="cls-1" points="273.89 475.26 357.96 475.93 486.23 14.57 262.19 11.5 241.82 83.67"/><polygon class="cls-1" points="237.87 552.17 366.13 90.8 142.1 87.74 11.5 550.36 237.87 552.17"/><line class="cls-1" x1="237.87" y1="552.17" x2="269.69" y2="552.17"/><line class="cls-1" x1="355.84" y1="475.93" x2="387.66" y2="475.93"/><line class="cls-2" x1="91.8" y1="487.19" x2="189.01" y2="487.19"/><line class="cls-2" x1="105.95" y1="439.64" x2="203.15" y2="439.64"/><line class="cls-2" x1="120.1" y1="392.08" x2="217.3" y2="392.08"/><line class="cls-2" x1="134.24" y1="344.53" x2="231.45" y2="344.53"/><line class="cls-2" x1="148.39" y1="296.97" x2="245.59" y2="296.97"/><line class="cls-2" x1="162.54" y1="249.41" x2="259.74" y2="249.41"/><line class="cls-2" x1="176.68" y1="201.86" x2="273.89" y2="201.86"/><line class="cls-2" x1="190.83" y1="154.3" x2="288.03" y2="154.3"/></g></g></g></svg>