<svg xmlns="http://www.w3.org/2000/svg" viewBox="0 0 753.63 563.79"><defs><style>.cls-1,.cls-2{fill:none;stroke-linecap:round;stroke-linejoin:round;}.cls-1{stroke:#fff;stroke-width:23px;}.cls-2{stroke:#ff5454;stroke-width:30px;}</style></defs><g id="Ebene_2" data-name="Ebene 2"><g id="Ebene_1-2" data-name="Ebene 1"><g id="Pistole"><path class="cls-1" d="M304.14,288.61l27.73-95.71,57.24-.2c-5.26,47.35,20.28,84.74,20.28,84.74-8.57-60,43.33-84.34,43.33-84.34l146.89.24,8.93-34.12H742.13V39.4l-466.2-1.15.21-26.75H243.85l-7.56,27.08H131.9l-37,137.2s.22,20-53.5,17.78c0,0-25.88,39.84-7.22,36.05,0,0,64.16-6.39,78.33,19.4s-55.9,152.4-55.9,152.4S-43.41,554,54.4,552.28c65.78-1.15,228.9-2.4,228.9-2.4l-31.15-54,42.78-166.18,107.42,1h42.54s44.12.93,62.56-91.82"/><line class="cls-2" x1="100.65" y1="491.3" x2="187.49" y2="491.3"/><line class="cls-2" x1="113.29" y1="448.81" x2="200.13" y2="448.81"/><line class="cls-2" x1="125.93" y1="406.33" x2="212.76" y2="406.33"/><line class="cls-2" x1="138.56" y1="363.84" x2="225.4" y2="363.84"/><line class="cls-2" x1="151.2" y1="321.36" x2="238.04" y2="321.36"/><line class="cls-2" x1="163.84" y1="278.87" x2="250.68" y2="278.87"/><line class="cls-2" x1="176.48" y1="236.39" x2="263.32" y2="236.39"/><line class="cls-2" x1="189.12" y1="193.91" x2="275.95" y2="193.91"/></g></g></g></svg>