<svg xmlns="http://www.w3.org/2000/svg" viewBox="0 0 1516.65 644.84"><defs><style>.cls-1,.cls-2{fill:none;stroke-linecap:round;stroke-linejoin:round;}.cls-1{stroke:#fff;stroke-width:23px;}.cls-2{stroke:#ff5454;stroke-width:30px;}</style></defs><g id="Ebene_2" data-name="Ebene 2"><g id="Ebene_1-2" data-name="Ebene 1"><g id="SMG"><path class="cls-1" d="M521.3,558.83l42.77-166.17,107.42,1H714s44.12.93,62.57-91.83"/><polyline class="cls-1" points="387.15 163.1 401.05 101.5 505.43 101.5 512.99 74.42 545.28 74.42 545.07 101.17 1296.77 101.17"/><path class="cls-1" d="M977.31,256.17c97.42-.3,201.17-.32,298.17-.32,4-10,4-22,8-32,1-2,4-2,6-2,42-1,83,1,125-1,1,0,3-1,3-2,0-39,1-78-1-117-24,0-49,0-72.75.37"/><path class="cls-1" d="M573.29,351.53c7.19-28.68,16.19-56.68,24.19-85.68,1-3,2-7,4-10,19,0,38,0,56.77-.23-3,27.31-.18,0,0,0-3.77,29.23,5.23,60.23,20.29,84.74-3.09-21.62-1.12-1.68,0,0-2.06-14.51-1.06-29.51,4.94-43.51,8-17,21-35,40-41,25,0,29.93,0,55,.2"/><path class="cls-1" d="M351,100.62,11.5,95.35c.06,2.7,2.68,8.92,3.53,12.21,3.26,12.68,6.38,25.39,9.52,38.1,9.87,39.94,19.69,79.89,29.77,119.78,10.22,40.47,20.53,80.95,32,121.1,4.92,17.24,9.74,34.69,16.86,51.17a3.74,3.74,0,0,0,4.37,2.92l51.44-.21c12.55-.06,28.4-3,33.48-16.4,6.37-16.74-.45-36.54.75-54,3.43-49.51,53-78.22,98.69-78.43,18.92-.08,36.47,2.1,55,5.4,8.89,1.58,17.83,3.82,25.53,8.52,14.47,8.84,16,21.12,15.26,36.73-.82,18.26-4.2,36.43-7.89,54.28-7.1,34.32-16.34,68.22-26.49,101.75Q351.72,503.66,350,509l186,67.3-7.33-46.4"/><line class="cls-2" x1="746.21" y1="589.33" x2="833.04" y2="590.16"/><line class="cls-2" x1="759.25" y1="546.97" x2="846.08" y2="547.8"/><line class="cls-2" x1="779.64" y1="467.69" x2="866.48" y2="468.51"/><line class="cls-2" x1="792.69" y1="425.33" x2="879.52" y2="426.15"/><line class="cls-2" x1="805.73" y1="382.96" x2="892.56" y2="383.79"/><line class="cls-2" x1="818.77" y1="340.6" x2="905.6" y2="341.43"/><line class="cls-2" x1="831.81" y1="298.24" x2="918.64" y2="299.06"/><line class="cls-2" x1="844.85" y1="255.88" x2="931.69" y2="256.7"/><polyline class="cls-1" points="1420.39 132.25 1505.15 132.25 1505.15 185.24 1417.27 185.24"/><path class="cls-1" d="M976.49,256.64,927.07,465c-5.24,24.92-26.91,42.6-51.79,42.22H725.63L740,438.44"/><path class="cls-1" d="M898.41,542.91l-12.58,60.57c-3.66,17.6-18.68,30.08-35.93,29.86l-158.82-2.06,19.76-92.75"/><line class="cls-1" x1="538.75" y1="11.5" x2="545.29" y2="74.42"/><path class="cls-1" d="M1297,100l12.26-47.65h0a33.87,33.87,0,0,1,33.87,33.86v14.39"/></g></g></g></svg>